# xmcd
#
# Track frame offsets:
#	150
#	11258
#	21273
#	33154
#	50134
#	66284
#	78838
#	93060
#	107295
#
# Disc length: 1567 seconds
#
# Revision: 1
# Processed by: cddbd v1.5.2PL0 Copyright (c) Steve Scherf et al.
# Submitted via: audiograbber 1.83.01
#
DISCID=5c061d09
DTITLE=Don Deal - Gold Tribute to Wynn Stewart
DYEAR=1900
DGENRE=Country
TTITLE0=Second Best
TTITLE1=When
TTITLE2=Thanks To You
TTITLE3=I D'ont Change My Mind Overnight
TTITLE4=Keeper Of The Keys
TTITLE5=My Good Things Gone
TTITLE6=Sing A Sad Song
TTITLE7=Above And Beyond
TTITLE8=Pretty World
EXTD=
EXTT0=
EXTT1=
EXTT2=
EXTT3=
EXTT4=
EXTT5=
EXTT6=
EXTT7=
EXTT8=
PLAYORDER=
